<?xml version="1.0" encoding="utf-8"?>
<!-- Generator: Adobe Illustrator 25.2.1, SVG Export Plug-In . SVG Version: 6.00 Build 0)  -->
<svg version="1.1" id="light-bicycle-brand-logo" xmlns="http://www.w3.org/2000/svg" xmlns:xlink="http://www.w3.org/1999/xlink"
	 x="0px" y="0px" viewBox="0 0 204 92.76" style="enable-background:new 0 0 204 92.76;" xml:space="preserve">
<style type="text/css">
	.st0{fill:#0070FF;}
	.st1{fill:#333333;}
	.st2{fill:none;stroke:#333333;stroke-width:0.6;stroke-miterlimit:10;}
</style>
<g>
	<g>
		<polygon class="st0" points="86.46,53.57 81.52,53.57 99.66,16.26 94.09,4.79 65.84,62.87 93.09,62.87 98.81,51.11 93.23,39.64 		
			"/>
		<polygon class="st0" points="120.81,34.9 122.83,30.74 110.18,4.78 95.53,34.91 101.11,46.38 110.2,27.69 112.67,32.78 
			104.17,50.25 115.33,50.25 118.24,44.25 122.78,53.58 115.62,53.58 113.71,53.58 102.55,53.58 98.03,62.87 138.45,62.87 
			124.85,34.9 		"/>
	</g>
	<g>
		<path class="st1" d="M138.95,6.12c-0.36,0.02-0.59,0.03-0.7,0.03h-0.82v2.66h-0.55V2.26h1.47c0.81,0,1.41,0.14,1.79,0.42
			c0.38,0.28,0.57,0.77,0.57,1.48c0,0.47-0.1,0.85-0.29,1.14c-0.19,0.29-0.5,0.52-0.92,0.7c0.45,0.86,0.87,1.8,1.24,2.81h-0.6
			C139.78,7.84,139.38,6.94,138.95,6.12z M138.33,2.76h-0.9v2.89h0.8c0.61,0,1.08-0.11,1.41-0.33c0.33-0.22,0.49-0.61,0.49-1.15
			c0-0.55-0.15-0.92-0.44-1.11S138.95,2.76,138.33,2.76z"/>
	</g>
	<circle class="st2" cx="138.69" cy="5.47" r="5"/>
	<g>
		<path class="st1" d="M11.68,90.55v1.63H1.22v-20.9h1.76v19.27H11.68z"/>
		<path class="st1" d="M17.81,92.17v-1.6h3.61V72.87h-3.61v-1.6h8.9v1.6h-3.54v17.71h3.54v1.6H17.81z"/>
		<path class="st1" d="M33.22,89.94c-1.19-1.7-1.79-4.44-1.79-8.22s0.58-6.51,1.75-8.22c1.17-1.7,3.07-2.55,5.71-2.55
			c1.72,0,3.53,0.34,5.42,1.02l-0.45,1.63c-1.94-0.66-3.6-0.99-4.98-0.99c-2,0-3.43,0.71-4.29,2.12c-0.86,1.42-1.29,3.72-1.29,6.92
			s0.45,5.53,1.34,6.99c0.89,1.46,2.24,2.19,4.05,2.19c1.09,0,2.39-0.26,3.93-0.77v-6.38h-3.61v-1.56h5.36v9.19
			c-2.19,0.79-4.08,1.18-5.68,1.18C36.24,92.49,34.41,91.64,33.22,89.94z"/>
		<path class="st1" d="M47.9,92.17v-20.9h1.76v9.7h9v-9.7h1.75v20.9h-1.75V82.6h-9v9.57H47.9z"/>
		<path class="st1" d="M63.67,72.9v-1.63H76.5v1.63h-5.55v19.27h-1.75V72.9H63.67z"/>
		<path class="st1" d="M96.19,92.17v-20.9h4.92c2.34,0,4.08,0.42,5.22,1.26c1.14,0.84,1.71,2.23,1.71,4.16c0,2.43-1.18,4-3.54,4.72
			c1.4,0.32,2.44,0.85,3.11,1.6c0.67,0.74,1,1.83,1,3.25c0,2.25-0.64,3.8-1.92,4.64c-1.28,0.84-3.23,1.26-5.87,1.26H96.19z
			 M104.51,73.41c-0.92-0.38-2.05-0.58-3.41-0.58h-3.16v7.98h3.41c1.34,0,2.48-0.3,3.41-0.91c0.94-0.61,1.41-1.72,1.44-3.33
			C106.23,74.95,105.66,73.9,104.51,73.41z M106.75,86.27c0-2.6-1.77-3.89-5.3-3.89h-3.51v8.23h2.87c1.98,0,3.46-0.31,4.45-0.94
			S106.75,87.91,106.75,86.27z"/>
		<path class="st1" d="M113.54,92.17v-1.6h3.61V72.87h-3.61v-1.6h8.9v1.6h-3.54v17.71h3.54v1.6H113.54z"/>
		<path class="st1" d="M139.55,90l0.41,1.63c-1.87,0.55-3.55,0.83-5.04,0.83c-2.45,0-4.26-0.85-5.44-2.54s-1.77-4.42-1.77-8.19
			s0.57-6.5,1.72-8.22c1.15-1.71,2.99-2.57,5.52-2.57c1.55,0,3.17,0.33,4.85,0.99l-0.51,1.6c-1.53-0.64-2.98-0.96-4.34-0.96
			c-1.89,0-3.26,0.72-4.1,2.15c-0.84,1.44-1.26,3.75-1.26,6.94s0.45,5.51,1.34,6.96c0.89,1.45,2.23,2.17,4.02,2.17
			C136.15,90.8,137.68,90.54,139.55,90z"/>
		<path class="st1" d="M150.72,83.14v9.03H149v-9.03l-6.16-11.87h2.11l4.88,10.05h0.06l4.88-10.05h2.11L150.72,83.14z"/>
		<path class="st1" d="M171.46,90l0.41,1.63c-1.87,0.55-3.55,0.83-5.04,0.83c-2.45,0-4.26-0.85-5.44-2.54s-1.77-4.42-1.77-8.19
			s0.57-6.5,1.72-8.22c1.15-1.71,2.99-2.57,5.52-2.57c1.55,0,3.17,0.33,4.85,0.99l-0.51,1.6c-1.53-0.64-2.98-0.96-4.34-0.96
			c-1.89,0-3.26,0.72-4.1,2.15c-0.84,1.44-1.26,3.75-1.26,6.94s0.45,5.51,1.34,6.96c0.89,1.45,2.23,2.17,4.02,2.17
			C168.06,90.8,169.59,90.54,171.46,90z"/>
		<path class="st1" d="M187.2,90.55v1.63h-10.47v-20.9h1.75v19.27H187.2z"/>
		<path class="st1" d="M192.4,92.17v-20.9h10.88v1.56h-9.13v7.91h8.26v1.56h-8.26v8.3h9.22v1.56H192.4z"/>
	</g>
</g>
</svg>
